<svg xmlns="http://www.w3.org/2000/svg" width="607" height="583" fill="none" viewBox="0 0 607 583"><path fill="url(#track-hero_svg__a)" d="M93.719 171.451 38.21 203.657c-17.53 10.735-29.215 29.278-29.215 50.749v63.436c0 20.494 10.712 40.013 29.215 50.749l55.508 31.23c17.529 10.735 39.927 10.735 58.43 0l55.508-32.206c17.529-10.736 29.215-29.279 29.215-50.749V253.43c0-20.495-10.712-40.014-29.215-50.749l-55.508-32.206c-17.529-8.784-39.927-8.784-58.43.976Z" opacity=".25"/><path fill="url(#track-hero_svg__b)" d="m236.421 435.015-32.206-55.508c-10.735-17.529-29.278-29.215-50.749-29.215H90.03c-20.495 0-40.013 10.712-50.749 29.215l-31.23 55.508c-10.735 17.529-10.735 39.927 0 58.43l32.206 55.508c10.736 17.529 29.279 29.215 50.75 29.215h63.435c20.495 0 40.014-10.712 50.749-29.215l32.206-55.508c8.784-17.529 8.784-39.927-.976-58.43Z" opacity=".25"/><path fill="url(#track-hero_svg__c)" d="m599.426 434.719-32.206-55.508c-10.736-17.529-29.278-29.215-50.749-29.215h-63.436c-20.495 0-40.014 10.712-50.749 29.215l-31.23 55.508c-10.735 17.529-10.735 39.927 0 58.43l32.206 55.508c10.735 17.529 29.278 29.215 50.749 29.215h63.436c20.494 0 40.013-10.712 50.749-29.215l32.206-55.508c8.783-17.529 8.783-39.927-.976-58.43Z" opacity=".25"/><path fill="url(#track-hero_svg__d)" d="m592.421 84.723-32.206-55.508C549.48 11.686 530.937 0 509.466 0H446.03c-20.494 0-40.013 10.712-50.748 29.215l-31.231 55.508c-10.735 17.529-10.735 39.927 0 58.43l32.206 55.508c10.736 17.529 29.279 29.215 50.749 29.215h63.436c20.495 0 40.014-10.712 50.749-29.215l32.206-55.508c8.784-17.529 8.784-39.927-.976-58.43Z" opacity=".25"/><path fill="url(#track-hero_svg__e)" d="m237.421 84.723-32.206-55.508C194.48 11.686 175.937 0 154.466 0H91.03C70.536 0 51.017 10.712 40.282 29.215L9.052 84.723c-10.736 17.529-10.736 39.927 0 58.43l32.206 55.508c10.735 17.529 29.278 29.215 50.748 29.215h63.436c20.495 0 40.014-10.712 50.749-29.215l32.206-55.508c8.784-17.529 8.784-39.927-.976-58.43Z" opacity=".25"/><path fill="url(#track-hero_svg__f)" d="m417.07 256.244-32.206-55.509c-10.735-17.529-29.278-29.214-50.749-29.214h-63.436c-20.494 0-40.013 10.712-50.749 29.214l-31.23 55.509c-10.735 17.529-10.735 39.927 0 58.43l32.206 55.508c10.736 17.529 29.279 29.215 50.749 29.215h63.436c20.495 0 40.014-10.712 50.749-29.215l32.206-55.508c8.784-17.529 8.784-39.927-.976-58.43Z" opacity=".25"/><path fill="url(#track-hero_svg__g)" d="m448.723 171.451-55.508 32.206C375.686 214.392 364 232.935 364 254.406v63.436c0 20.494 10.712 40.013 29.215 50.749l55.508 31.23c17.529 10.735 39.927 10.735 58.43 0l55.508-32.206c17.529-10.736 29.215-29.279 29.215-50.749V253.43c0-20.495-10.712-40.014-29.215-50.749l-55.508-32.206c-17.529-8.784-39.927-8.784-58.43.976Z" opacity=".25"/><path fill="url(#track-hero_svg__h)" d="m273.368 345.743-55.508 32.206c-17.529 10.735-29.215 29.278-29.215 50.749v63.436c0 20.494 10.712 40.013 29.215 50.749l55.508 31.23c17.529 10.735 39.927 10.735 58.43 0l55.508-32.206c17.529-10.736 29.215-29.279 29.215-50.749v-63.436c0-20.495-10.712-40.014-29.215-50.749l-55.508-32.206c-17.529-8.784-39.927-8.784-58.43.976Z" opacity=".25"/><path fill="url(#track-hero_svg__i)" d="m417.07 84.723-32.206-55.508C374.129 11.686 355.586 0 334.116 0H270.68c-20.495 0-40.014 10.712-50.749 29.215l-31.23 55.508c-10.736 17.529-10.736 39.927 0 58.43l32.206 55.508c10.735 17.529 29.278 29.215 50.748 29.215h63.437c20.494 0 40.013-10.712 50.748-29.215l32.206-55.508c8.784-17.529 8.784-39.927-.976-58.43Z" opacity=".25"/><defs><linearGradient id="track-hero_svg__a" x1="352.528" x2="52.101" y1="164.005" y2="335.354" gradientUnits="userSpaceOnUse"><stop stop-color="#73E2CE"/><stop offset=".383" stop-color="#6C63FF"/><stop offset="1"/></linearGradient><linearGradient id="track-hero_svg__b" x1="243.867" x2="72.518" y1="693.824" y2="393.397" gradientUnits="userSpaceOnUse"><stop stop-color="#73E2CE"/><stop offset=".383" stop-color="#6C63FF"/><stop offset="1"/></linearGradient><linearGradient id="track-hero_svg__c" x1="606.872" x2="435.522" y1="693.528" y2="393.101" gradientUnits="userSpaceOnUse"><stop stop-color="#73E2CE"/><stop offset=".383" stop-color="#6C63FF"/><stop offset="1"/></linearGradient><linearGradient id="track-hero_svg__d" x1="599.867" x2="428.518" y1="343.532" y2="43.105" gradientUnits="userSpaceOnUse"><stop stop-color="#73E2CE"/><stop offset=".383" stop-color="#6C63FF"/><stop offset="1"/></linearGradient><linearGradient id="track-hero_svg__e" x1="244.867" x2="73.518" y1="343.532" y2="43.105" gradientUnits="userSpaceOnUse"><stop stop-color="#73E2CE"/><stop offset=".383" stop-color="#6C63FF"/><stop offset="1"/></linearGradient><linearGradient id="track-hero_svg__f" x1="424.516" x2="253.167" y1="515.052" y2="214.626" gradientUnits="userSpaceOnUse"><stop stop-color="#73E2CE"/><stop offset=".383" stop-color="#6C63FF"/><stop offset="1"/></linearGradient><linearGradient id="track-hero_svg__g" x1="707.532" x2="407.105" y1="164.005" y2="335.354" gradientUnits="userSpaceOnUse"><stop stop-color="#73E2CE"/><stop offset=".383" stop-color="#6C63FF"/><stop offset="1"/></linearGradient><linearGradient id="track-hero_svg__h" x1="532.177" x2="231.75" y1="338.297" y2="509.646" gradientUnits="userSpaceOnUse"><stop stop-color="#73E2CE"/><stop offset=".383" stop-color="#6C63FF"/><stop offset="1"/></linearGradient><linearGradient id="track-hero_svg__i" x1="424.516" x2="253.167" y1="343.532" y2="43.105" gradientUnits="userSpaceOnUse"><stop stop-color="#73E2CE"/><stop offset=".383" stop-color="#6C63FF"/><stop offset="1"/></linearGradient></defs></svg>