<svg class="h-icon" style="width: auto; height: 14px;" xmlns="http://www.w3.org/2000/svg" width="146" height="14" viewBox="0 0 146 14" fill="#bfbfbf"><path d="M3.674 11.15c1.05 0 1.935-.314 2.55-.93.615-.614.975-1.544.975-2.79V.5H5.31v6.886c0 1.395-.675 2.055-1.665 2.055-.885 0-1.5-.45-2.115-1.23L.314 9.456c.69.945 1.74 1.695 3.36 1.695zM13.148 11.18c1.455 0 2.49-.584 3.24-1.484l-1.065-.945c-.63.615-1.26.945-2.145.945-1.17 0-2.085-.72-2.28-2.01h5.82c.015-.09.03-.39.03-.51 0-2.28-1.275-4.26-3.795-4.26-2.265 0-3.87 1.86-3.87 4.125 0 2.475 1.77 4.14 4.065 4.14zm-2.265-4.694c.165-1.23.945-2.085 2.055-2.085 1.2 0 1.89.915 2.01 2.085h-4.065zM21.226 11.136c.675 0 1.185-.15 1.635-.405V9.246c-.36.18-.72.27-1.125.27-.615 0-.975-.285-.975-.99V4.64h2.13V3.08h-2.13V.906h-1.815V3.08h-1.005v1.56h1.005v4.17c0 1.74.945 2.325 2.28 2.325zM24.933 11h4.86c2.34 0 3.885-1.004 3.885-2.88 0-1.454-.855-2.16-2.085-2.58.78-.404 1.5-1.08 1.5-2.34 0-.734-.24-1.304-.705-1.77-.6-.6-1.545-.93-2.745-.93h-4.71V11zm1.815-6.074v-2.79h2.655c1.185 0 1.845.51 1.845 1.335 0 .99-.795 1.455-1.98 1.455h-2.52zm0 4.44v-2.88h2.925c1.455 0 2.16.525 2.16 1.41 0 .975-.765 1.47-2.025 1.47h-3.06zM35.549 11h1.815V7.987c0-2.1 1.11-3.135 2.7-3.135h.105V2.93c-1.395-.06-2.31.75-2.805 1.935V3.08h-1.815V11zM48.01 11V6.307c0-2.115-1.14-3.345-3.48-3.345-1.29 0-2.146.27-3.016.66l.495 1.455c.72-.3 1.38-.495 2.265-.495 1.26 0 1.95.6 1.95 1.695v.15c-.615-.195-1.23-.33-2.19-.33-1.845 0-3.21.84-3.21 2.595 0 1.62 1.32 2.475 2.82 2.475 1.2 0 2.025-.495 2.565-1.14V11h1.8zm-1.756-2.864c0 .99-.9 1.665-2.1 1.665-.855 0-1.53-.42-1.53-1.17 0-.795.675-1.26 1.815-1.26.705 0 1.35.135 1.815.315v.45zM50.198 1.866h1.95V.14h-1.95v1.725zM50.273 11h1.815V3.08h-1.815V11zM54.46 11h1.815V6.53c0-1.23.735-1.964 1.785-1.964 1.08 0 1.695.705 1.695 1.935V11h1.815V5.96c0-1.845-1.035-3.045-2.82-3.045-1.23 0-1.965.645-2.475 1.395V3.08H54.46V11zM66.477 11.15c1.65 0 2.94-.824 2.94-2.49 0-1.454-1.305-1.98-2.46-2.34l-.15-.044c-.87-.285-1.636-.525-1.636-1.065 0-.495.405-.825 1.11-.825.66 0 1.47.285 2.235.75l.72-1.29c-.84-.555-1.92-.9-2.91-.9-1.575 0-2.82.915-2.82 2.415 0 1.545 1.305 2.025 2.475 2.37l.136.045c.87.255 1.634.465 1.634 1.05 0 .555-.45.885-1.23.885-.81 0-1.74-.33-2.595-.975l-.81 1.23c.99.78 2.236 1.185 3.36 1.185zM75.069 11h1.89l1.08-2.534h4.965L84.069 11h1.95L81.399.426h-1.71L75.069 11zm3.645-4.17l1.8-4.2 1.815 4.2h-3.615zM90.888 11.18c1.545 0 2.46-.614 3.24-1.484l-1.095-1.08c-.57.585-1.2.99-2.055.99-1.395 0-2.37-1.14-2.37-2.55s.96-2.55 2.28-2.55c.915 0 1.5.405 2.055.99l1.125-1.215c-.735-.81-1.665-1.365-3.165-1.365-2.37 0-4.11 1.89-4.11 4.14 0 2.28 1.74 4.125 4.095 4.125zM102.443 11V6.307c0-2.115-1.14-3.345-3.48-3.345-1.29 0-2.145.27-3.015.66l.495 1.455c.72-.3 1.38-.495 2.265-.495 1.26 0 1.95.6 1.95 1.695v.15c-.615-.195-1.23-.33-2.19-.33-1.845 0-3.21.84-3.21 2.595 0 1.62 1.32 2.475 2.82 2.475 1.2 0 2.025-.495 2.565-1.14V11h1.8zm-1.755-2.864c0 .99-.9 1.665-2.1 1.665-.855 0-1.53-.42-1.53-1.17 0-.795.675-1.26 1.815-1.26.705 0 1.35.135 1.815.315v.45zM107.871 11.166c1.29 0 2.115-.66 2.7-1.485V11h1.815V.05h-1.815v4.26c-.57-.735-1.395-1.395-2.7-1.395-1.89 0-3.675 1.485-3.675 4.11 0 2.655 1.815 4.14 3.675 4.14zm.435-1.575c-1.23 0-2.28-1.005-2.28-2.535 0-1.605 1.035-2.565 2.28-2.565 1.215 0 2.295 1.005 2.295 2.535 0 1.545-1.08 2.565-2.295 2.565zM118.28 11.18c1.455 0 2.49-.584 3.24-1.484l-1.065-.945c-.63.615-1.26.945-2.145.945-1.17 0-2.085-.72-2.28-2.01h5.82c.015-.09.03-.39.03-.51 0-2.28-1.275-4.26-3.795-4.26-2.265 0-3.87 1.86-3.87 4.125 0 2.475 1.77 4.14 4.065 4.14zm-2.265-4.694c.165-1.23.945-2.085 2.055-2.085 1.2 0 1.89.915 2.01 2.085h-4.065zM123.703 11h1.815V6.547c0-1.23.69-1.98 1.695-1.98 1.005 0 1.605.69 1.605 1.92V11h1.815V6.53c0-1.275.705-1.965 1.695-1.965 1.02 0 1.605.675 1.605 1.935V11h1.815V5.946c0-1.935-1.05-3.03-2.775-3.03-1.2 0-2.04.555-2.685 1.395-.42-.84-1.215-1.395-2.355-1.395-1.215 0-1.905.66-2.415 1.365v-1.2h-1.815V11zM139.356 13.446c1.275 0 1.98-.6 2.61-2.22l3.15-8.145h-1.89l-2.055 5.88-2.25-5.88h-1.935l3.3 7.92c-.3.69-.615.915-1.125.915-.375 0-.735-.12-1.065-.3l-.615 1.35c.555.3 1.11.48 1.875.48z"></path></svg>